<?xml version="1.0" standalone="no"?>
<!DOCTYPE svg PUBLIC "-//W3C//DTD SVG 20010904//EN"
 "http://www.w3.org/TR/2001/REC-SVG-20010904/DTD/svg10.dtd">
<svg version="1.0" xmlns="http://www.w3.org/2000/svg"
 width="300.000000pt" height="300.000000pt" viewBox="0 0 300.000000 300.000000"
 preserveAspectRatio="xMidYMid meet">
<metadata>
Created by potrace 1.14, written by Peter Selinger 2001-2017
</metadata>
<g transform="translate(0.000000,300.000000) scale(0.100000,-0.100000)"
fill="#000000" stroke="none">
<path d="M1313 2421 c-179 -60 -246 -238 -157 -415 31 -61 87 -117 219 -221
55 -43 141 -119 192 -169 51 -50 97 -91 102 -91 5 0 22 16 38 36 36 45 99 107
161 156 26 21 52 43 59 48 7 6 18 15 25 20 63 48 157 138 188 179 45 60 79
154 75 211 -6 97 -69 186 -165 232 -45 22 -70 27 -135 27 -90 0 -151 -23 -213
-82 -38 -35 -35 -35 -91 17 -67 62 -200 85 -298 52z"/>
<path d="M788 2358 c-9 -5 -6 -8 9 -8 48 0 51 -13 53 -262 2 -128 3 -287 4
-353 1 -66 0 -125 -2 -132 -2 -6 -17 -15 -34 -18 -51 -12 -21 -19 77 -20 59 0
94 4 92 10 -2 6 -12 12 -23 14 -10 2 -22 7 -25 12 -3 5 -4 71 -2 147 7 294 11
479 12 533 1 52 3 57 26 63 14 4 25 10 25 14 0 11 -196 11 -212 0z"/>
<path d="M968 1365 c-2 -2 -25 -5 -51 -6 -27 -2 -50 -6 -53 -11 -5 -7 2 -9 46
-12 13 -1 15 -46 15 -343 l1 -342 -28 -10 c-15 -6 -28 -12 -28 -15 0 -3 57 -4
128 -2 105 3 137 7 180 26 45 19 110 76 113 98 0 4 2 14 4 22 14 55 13 72 -4
112 -20 47 -61 92 -103 114 -15 8 -30 14 -33 14 -36 -1 -40 1 -20 11 98 54
141 116 131 192 -3 23 -5 45 -5 49 -2 18 -58 70 -90 84 -31 14 -193 28 -203
19z m144 -34 c62 -24 89 -156 47 -230 -26 -46 -56 -68 -108 -80 -47 -10 -43
-19 -41 109 2 111 9 200 15 210 6 10 48 6 87 -9z m19 -366 c53 -34 83 -102 76
-171 -10 -92 -63 -143 -155 -147 l-47 -2 0 172 c-1 147 1 173 15 176 28 7 75
-5 111 -28z"/>
<path d="M1470 1163 c-81 -42 -132 -173 -126 -327 4 -119 29 -176 90 -206 23
-11 51 -20 62 -20 34 0 91 20 127 44 19 13 38 22 41 18 3 -3 6 0 6 6 0 17 -11
15 -61 -8 -62 -28 -96 -26 -129 9 -30 31 -50 102 -50 174 l0 42 105 1 c68 1
110 5 118 13 12 12 19 101 7 101 -3 0 -7 11 -8 25 -2 33 -34 95 -60 118 -29
27 -81 31 -122 10z m60 -13 c23 -13 38 -58 45 -141 7 -81 1 -88 -85 -93 l-62
-4 7 71 c7 74 25 129 52 159 19 21 19 21 43 8z"/>
<path d="M1751 1163 c-36 -7 -67 -15 -69 -18 -4 -4 1 -7 42 -19 12 -4 15 -45
16 -241 l1 -235 -26 -10 c-14 -5 -25 -12 -25 -14 0 -2 38 -4 85 -4 47 0 85 2
85 4 0 3 -12 9 -26 14 -26 10 -27 11 -21 93 13 187 98 394 152 373 38 -14 48
-73 49 -266 1 -182 1 -184 -22 -196 -12 -6 -24 -13 -27 -16 -3 -2 37 -5 88 -5
90 -1 91 0 60 15 -31 15 -32 16 -27 71 6 84 7 312 0 348 -21 111 -80 152 -143
99 -33 -28 -87 -132 -105 -202 -19 -76 -26 -73 -22 8 2 40 6 103 8 141 2 37 1
69 -3 71 -3 1 -35 -3 -70 -11z"/>
</g>
</svg>
